<svg width="249" height="40" viewBox="0 0 249 40" fill="none" xmlns="http://www.w3.org/2000/svg">
  <path d="M248.35 7.94689H240.403V0H231.299V7.94689H223.352V17.0507H231.299V24.9976H240.403V17.0507H248.35V7.94689Z" fill="white"/>
  <path d="M20.1991 21.266L13.3807 39.4926H6.81839L0 21.266H6.7046L10.0948 31.7259L13.4851 21.266H20.1897H20.1991Z" fill="#2B3951"/>
  <path d="M39.6633 21.266V39.4926H33.613V37.8141C32.4466 39.1986 30.7681 40 28.4352 40C23.5514 40 19.8672 35.8463 19.8672 30.3793C19.8672 24.9122 23.5467 20.7586 28.4352 20.7586C30.7681 20.7586 32.4466 21.5599 33.613 22.9445V21.266H39.6633ZM33.613 30.3793C33.613 28.0085 32.0436 26.4058 29.7866 26.4058C27.5296 26.4058 25.9601 28.0085 25.9601 30.3793C25.9601 32.7501 27.5296 34.3527 29.7866 34.3527C32.0436 34.3527 33.613 32.7501 33.613 30.3793Z" fill="#2B3951"/>
  <path d="M54.3149 20.9009V27.6055C51.9109 27.2404 48.8479 28.3357 48.8479 31.944V39.4879H42.7976V21.2612H48.8479V24.6515C49.5781 22.1716 51.873 20.8961 54.3149 20.8961V20.9009Z" fill="#2B3951"/>
  <path d="M84.0207 28.3357V39.4879H77.9325V29.0279C77.9325 27.4585 77.2023 26.477 75.6708 26.477C73.9591 26.477 73.1578 27.7145 73.1578 29.54V39.4926H67.1075V29.0327C67.1075 27.4632 66.3441 26.4817 64.8126 26.4817C63.134 26.4817 62.2995 27.7193 62.2995 29.5448V39.4974H56.2493V21.2707H62.2995V22.9824C63.2858 21.669 64.8884 20.7586 67.2213 20.7586C69.374 20.7586 70.9008 21.5979 71.887 23.0915C73.0155 21.7069 74.6561 20.7586 77.1739 20.7586C81.3654 20.7586 84.0255 23.6036 84.0255 28.3404L84.0207 28.3357Z" fill="#2B3951"/>
  <path d="M86.937 21.266H92.9873V39.4926H86.937V21.266Z" fill="#2B3951"/>
  <path d="M115.002 21.266V39.4926H108.952V37.8141C107.786 39.1986 106.107 40 103.774 40C98.8905 40 95.2063 35.8463 95.2063 30.3793C95.2063 24.9122 98.8858 20.7586 103.774 20.7586C106.107 20.7586 107.786 21.5599 108.952 22.9445V21.266H115.002ZM108.952 30.3793C108.952 28.0085 107.383 26.4058 105.126 26.4058C102.869 26.4058 101.299 28.0085 101.299 30.3793C101.299 32.7501 102.869 34.3527 105.126 34.3527C107.383 34.3527 108.952 32.7501 108.952 30.3793Z" fill="white"/>
  <path d="M129.654 20.9009V27.6055C127.25 27.2404 124.187 28.3357 124.187 31.944V39.4879H118.136V21.2612H124.187V24.6515C124.917 22.1716 127.212 20.8961 129.654 20.8961V20.9009Z" fill="white"/>
  <path d="M141.024 27.0602V32.347C141.024 34.0588 142.371 34.1678 144.813 34.0256V39.4926C137.378 40.403 134.969 38.1081 134.969 32.494V27.0649H132.233V21.2707H134.969V17.9895L141.019 16.1688V21.2707H144.808V27.0649H141.019L141.024 27.0602Z" fill="white"/>
  <path d="M156.482 27.0602V32.347C156.482 34.0588 157.828 34.1678 160.27 34.0256V39.4926C152.836 40.403 150.427 38.1081 150.427 32.494V27.0649H147.691V21.2707H150.427V17.9895L156.477 16.1688V21.2707H160.266V27.0649H156.477L156.482 27.0602Z" fill="white"/>
  <path d="M163.442 21.266H169.493V39.4926H163.442V21.266Z" fill="white"/>
  <path d="M184.144 20.9009V27.6055C181.74 27.2404 178.677 28.3357 178.677 31.944V39.4879H172.627V21.2612H178.677V24.6515C179.407 22.1716 181.702 20.8961 184.144 20.8961V20.9009Z" fill="white"/>
  <path d="M205.249 21.266V39.4926H199.199V37.8141C198.032 39.1986 196.354 40 194.021 40C189.137 40 185.453 35.8463 185.453 30.3793C185.453 24.9122 189.132 20.7586 194.021 20.7586C196.354 20.7586 198.032 21.5599 199.199 22.9445V21.266H205.249ZM199.199 30.3793C199.199 28.0085 197.629 26.4058 195.372 26.4058C193.115 26.4058 191.546 28.0085 191.546 30.3793C191.546 32.7501 193.115 34.3527 195.372 34.3527C197.629 34.3527 199.199 32.7501 199.199 30.3793Z" fill="white"/>
  <path d="M226.207 28.5917V39.4879H220.156V29.3551C220.156 27.3874 218.99 26.477 217.421 26.477C215.562 26.477 214.433 27.6055 214.433 29.7961V39.4926H208.383V21.266H214.433V23.0868C215.453 21.6311 217.24 20.7539 219.502 20.7539C223.257 20.7539 226.207 23.3428 226.207 28.5917Z" fill="white"/>
</svg>
